<svg width="32" height="32" viewBox="0 0 32 32" fill="none" xmlns="http://www.w3.org/2000/svg">
  <!-- 渐变定义 -->
  <defs>
    <linearGradient id="gradient" x1="0%" y1="0%" x2="100%" y2="100%">
      <stop offset="0%" style="stop-color:#3b82f6;stop-opacity:1" />
      <stop offset="50%" style="stop-color:#06b6d4;stop-opacity:1" />
      <stop offset="100%" style="stop-color:#1e40af;stop-opacity:1" />
    </linearGradient>
    <filter id="shadow" x="-20%" y="-20%" width="140%" height="140%">
      <feDropShadow dx="0" dy="2" stdDeviation="2" flood-color="#000000" flood-opacity="0.2"/>
    </filter>
  </defs>
  
  <!-- 背景圆形 -->
  <circle cx="16" cy="16" r="14" fill="url(#gradient)" filter="url(#shadow)"/>
  
  <!-- 火焰图标 - Coast FIRE的核心象征 -->
  <path d="M16 5C14.2 7.5 12.5 10.2 12.5 13C12.5 16.6 15.4 19.5 19 19.5C19.4 19.5 19.8 19.47 20.2 19.4C19.5 21.3 17.8 22.8 16 23.7C14.2 22.8 12.5 21.3 11.8 19.4C12.2 19.47 12.6 19.5 13 19.5C16.6 19.5 19.5 16.6 19.5 13C19.5 10.2 17.8 7.5 16 5Z" fill="white" opacity="0.95"/>
  
  <!-- 计算器网格 - 代表计算功能 -->
  <g fill="white" opacity="0.8">
    <rect x="6" y="21" width="1.5" height="1.5" rx="0.3"/>
    <rect x="8.5" y="21" width="1.5" height="1.5" rx="0.3"/>
    <rect x="11" y="21" width="1.5" height="1.5" rx="0.3"/>
    
    <rect x="6" y="23.5" width="1.5" height="1.5" rx="0.3"/>
    <rect x="8.5" y="23.5" width="1.5" height="1.5" rx="0.3"/>
    <rect x="11" y="23.5" width="1.5" height="1.5" rx="0.3"/>
    
    <rect x="6" y="26" width="1.5" height="1.5" rx="0.3"/>
    <rect x="8.5" y="26" width="1.5" height="1.5" rx="0.3"/>
    <rect x="11" y="26" width="1.5" height="1.5" rx="0.3"/>
  </g>
  
  <!-- 上升趋势箭头 - 代表财富增长 -->
  <g stroke="white" stroke-width="1.8" stroke-linecap="round" stroke-linejoin="round" fill="none" opacity="0.9">
    <path d="M20 20L22.5 17.5L25 20"/>
    <path d="M22.5 17.5V26"/>
  </g>
  
  <!-- 小装饰点 - 增加设计感 -->
  <circle cx="24" cy="8" r="1" fill="white" opacity="0.6"/>
  <circle cx="8" cy="12" r="0.8" fill="white" opacity="0.4"/>
</svg>
